<svg height="496pt" viewBox="0 -28 496.08035 496" width="496pt" xmlns="http://www.w3.org/2000/svg"><path d="m232.007812 160.039062c0-13.253906-10.746093-24-24-24-13.257812 0-24 10.746094-24 24 0 13.257813 10.742188 24 24 24 13.253907 0 24-10.742187 24-24zm-32 0c0-4.417968 3.582032-8 8-8 4.417969 0 8 3.582032 8 8 0 4.417969-3.582031 8-8 8-4.417968 0-8-3.582031-8-8zm0 0"/><path d="m120.007812 136.039062c-13.257812 0-24 10.746094-24 24 0 13.257813 10.742188 24 24 24 13.253907 0 24-10.742187 24-24 0-13.253906-10.746093-24-24-24zm0 32c-4.417968 0-8-3.582031-8-8 0-4.417968 3.582032-8 8-8 4.417969 0 8 3.582032 8 8 0 4.417969-3.582031 8-8 8zm0 0"/><path d="m296.007812 184.039062c13.253907 0 24-10.742187 24-24 0-13.253906-10.746093-24-24-24-13.257812 0-24 10.746094-24 24 0 13.257813 10.742188 24 24 24zm0-32c4.417969 0 8 3.582032 8 8 0 4.417969-3.582031 8-8 8-4.417968 0-8-3.582031-8-8 0-4.417968 3.582032-8 8-8zm0 0"/><path d="m450.238281 338.617188c29.976563-22.097657 45.769531-49.839844 45.769531-80.578126 0-42.878906-30.601562-81.789062-80.152343-102.65625-3.226563-86.070312-95.183594-155.3437495-207.847657-155.3437495-114.691406 0-207.9999995 71.7773435-207.9999995 159.9999995 0 42.9375 22.5273435 84.152344 62.0546875 114l-61.214844 122.402344c-1.699218 3.394532-.7812498 7.515625 2.203125 9.863282 2.980469 2.351562 7.207031 2.28125 10.109375-.167969l116.359375-97.914063c23.933594 7.429688 48.820313 11.355469 73.878907 11.648438 28.609374 34.714844 79.710937 56.167968 134.609374 56.167968 20.3125.410157 40.585938-1.976562 60.246094-7.09375l84.6875 69.285157c2.917969 2.445312 7.148438 2.496093 10.125.128906 2.972656-2.371094 3.867188-6.507813 2.140625-9.894531zm-327.625-45.496094-90.136719 75.871094 46.921876-93.855469c1.773437-3.542969.683593-7.851563-2.558594-10.128907-38.664063-27.078124-60.832032-65.335937-60.832032-104.96875 0-79.398437 86.132813-144 192-144 105.863282 0 192 64.601563 192 144 0 79.402344-86.136718 144-192 144-26.398437.109376-52.636718-4.074218-77.691406-12.382812-2.644531-.878906-5.5625-.324219-7.703125 1.464844zm282.457031 60.726562c-2.109374-1.726562-4.953124-2.257812-7.542968-1.414062-19.335938 5.570312-39.410156 8.132812-59.519532 7.605468-44.746093 0-86.496093-15.246093-113.183593-40.566406 101.453125-6.28125 182.550781-68.800781 190.476562-146.871094 40.167969 18.757813 64.707031 50.742188 64.707031 85.4375 0 27.472657-14.960937 51.480469-44.472656 71.367188-3.332031 2.246094-4.484375 6.613281-2.6875 10.210938l31.277344 62.550781zm0 0"/></svg>